<svg xmlns="http://www.w3.org/2000/svg" viewBox="0 0 1586.32 595.16" preserveAspectRatio="xMinYMax slice"><defs><style>.cls-1,.cls-2{fill:#fff;}.cls-2{opacity:0.63;}</style></defs><title>banner-border</title><g id="Layer_2" data-name="Layer 2"><g id="Layer_1-2" data-name="Layer 1"><path class="cls-1" d="M1321.91,254.21C1189.7,254.21,1189.7,144,1057.5,144s-132.19,110.2-264.38,110.2S660.93,144,528.74,144s-132.19,110.2-264.37,110.2S132.18,144,0,144V595.16H1586.32V144C1454.11,144,1454.11,254.21,1321.91,254.21Z"/><path class="cls-2" d="M1321.91,182.21C1189.7,182.21,1189.7,72,1057.5,72S925.31,182.21,793.12,182.21,660.93,72,528.74,72,396.55,182.21,264.37,182.21,132.18,72,0,72V523.16H1586.32V72C1454.11,72,1454.11,182.21,1321.91,182.21Z"/><path class="cls-2" d="M1321.91,110.21C1189.7,110.21,1189.7,0,1057.5,0S925.31,110.21,793.12,110.21,660.93,0,528.74,0,396.55,110.21,264.37,110.21,132.18,0,0,0V451.15H1586.32V0C1454.11,0,1454.11,110.21,1321.91,110.21Z"/></g></g></svg>