<svg xmlns="http://www.w3.org/2000/svg" viewBox="0 0 1208.77 1422"><defs><style>.cls-1,.cls-3{fill:#d00662;}.cls-1,.cls-2{fill-rule:evenodd;}.cls-2,.cls-4,.cls-5{fill:#005eb6;}.cls-5{stroke:#005eb6;stroke-miterlimit:10;stroke-width:8.91px;}</style></defs><title>logo</title><g id="Layer_2" data-name="Layer 2"><g id="Part_Logo_Image" data-name="Part Logo Image"><path class="cls-1" d="M677.21,733.06c-32.88-.9-67.91-10.95-103-21.59-34.27-10.39-68.69-20.62-103.62-28.35-16.66-3.68-34.69-2.39-52-1.48-14.84.78-23.78-5.73-29.87-18a199.09,199.09,0,0,1-21.29-83.46c-.7-24.25-2.22-49.15,2.29-72.68,5.59-29.15,16.43-57.37,26.08-85.63,14-41.11,30.6-81.41,43.13-123,11-36.46,16.37-74.6,27-111.2,17.18-59.12,41-115.52,78.93-164.88a164.61,164.61,0,0,1,14-15.28c8.22-8.26,17.36-9.84,27.81-4.49A402.65,402.65,0,0,1,705.4,95.44c34.33,38.72,69.06,77.22,105.74,113.67,21.61,21.47,46.54,39.92,71.48,57.62,24.67,17.52,52.32,15.37,79.14,4.19,7.37-3.06,13.41-2.46,19.77.54,20.61,9.73,37.84,23.94,52.56,41.16,6.1,7.12,5.91,15.8,1,23.05-18.86,27.67-40.57,53.43-74.37,61.76a139,139,0,0,1-56.51,1.66C833,386.13,770.59,351.71,710,314c-17.34-10.78-33.66-23.22-50.83-34.31-8.78-5.67-18.48-9.93-27.62-15.07-7.52-4.23-11.15-.91-12.69,6.25-4.22,19.61-8.24,39.27-12.37,58.9-5.7,27-10.54,54.24-17.41,80.93-6.58,25.56.66,44.18,19.76,62.33,43.24,41.09,84.74,84,126.67,126.51,19.9,20.16,39.21,40.92,58.71,61.48a100.68,100.68,0,0,1,9.57,11.3c4.25,6,3.65,11.86-2.48,16.43C765.67,715.34,727,733.62,677.21,733.06Z"/><path class="cls-1" d="M50.23,737.43c-20.32-16.79-33.5-36.68-39.88-59.72C-4,626-5,574,17.25,523.88c17.38-39.19,46.82-67.78,85.7-85.27,22.28-10,44.61-4.31,65.13,8,24.27,14.54,24.5,15.77,8.6,38.54-8.27,11.85-17.41,23.06-19.25,38.38-1.7,14,1.94,22.9,14.22,29.58,9.34,5.08,17.71,3.87,26.89-7.22,9.59-11.57,17.28-24.72,25.73-37.23,2.15-3.18,4-6.56,7.3-12,14.71,16.89,29.06,31.84,41.64,48.16,21.71,28.19,36.14,60.42,48.42,93.62,3.65,9.87,7.24,19.77,11,29.62,5.1,13.48,2.74,23.29-9.82,29.13Q256.55,728,189.66,757.29c-26.12,11.42-53.69,11.79-81.4,6.88a94.09,94.09,0,0,1-16-4.73c-17.29-6.43-21-15.82-13.8-33.27,9.14-22.33,24.31-39.7,43.19-54.29,16.49-12.75,32.71-25.82,39.66-46.76,4.37-13.2,5.29-26.55,1.29-39.86-4.9-16.29-20.19-20.11-31.9-7.57A152.46,152.46,0,0,0,93.46,646.5C85.46,679.46,67.84,707.39,50.23,737.43Z"/><path class="cls-2" d="M38.7,1083.55c14.3-206.31,196-364.88,399.93-355.92,103.61,4.55,199.18,34.84,293.14,76.85,75.4,33.73,152.28,67.61,232,87.48,112.83,28.15,177.5-14,216.7-124,4.57-12.82,8.55-25.85,13.48-40.85,49.41,124.82-29.41,261.52-163.18,287.23-109.39,21-211.66-6.91-312.48-45.58C646.45,941.23,575.69,909.6,502,888.54c-169.86-48.49-308.92,5.23-419.66,139.37C68.56,1044.56,55.63,1061.89,38.7,1083.55Z"/><path class="cls-3" d="M123.85,1223.86c0,27.13-24.3,43.41-64.17,43.41-28.07,0-46-5.19-46-12.51V1127.85c0-7.55,16.52-12.51,42.94-12.51,38.92,0,62.75,15.34,62.75,39.87,0,17.93-10.85,30.2-28.55,33C111.35,1190.6,123.85,1203.34,123.85,1223.86ZM96,1222.21c0-15.1-12-21.94-35.86-21.94H41.28V1242c4.72,1.18,12.27,1.88,21.94,1.88C85.16,1243.91,96,1237.07,96,1222.21Zm-54.5-82.33v37.51H59.68q31.86,0,31.85-19.82c0-13-10.61-19.11-32.32-19.11Q47.88,1138.46,41.52,1139.88Z"/><path class="cls-3" d="M186.83,1222a140.4,140.4,0,0,1-19.81-1.41c.47,16.75,15.8,24.77,32.32,24.77,9.9,0,20.29-3.07,32.32-8.49,8.72-3.78,8.72,15.57,2.12,19.81A68,68,0,0,1,197.21,1267c-29,0-58-16.75-58-56.85,0-33.73,18.64-55.44,54.49-55.44,34.45,0,51.67,17,51.67,48.13C245.34,1214,216.56,1222,186.83,1222Zm-1.65-20.28c19.58,0,34.92-3.07,34.92-6.61,0-11.56-8.73-19.34-25.25-19.34-15.09,0-27.12,6.84-27.36,25A153.05,153.05,0,0,0,185.18,1201.69Z"/><path class="cls-3" d="M313.28,1198.62c20.76,3.07,46.94,6.13,46.94,33.26,0,24.77-25.48,35.39-52.13,35.39-14.63,0-29.73-3.07-41.29-8.49-6.6-3.31-7.78-26.66-.23-23.12a83.88,83.88,0,0,0,38.68,9.67c15.34,0,27.37-4.95,27.37-13.92,0-8.26-11.32-10.14-25-12.27-20.52-3.3-46.47-6.6-46.47-31.37,0-22.88,25-33,51.66-33,14.16,0,28.55,2.83,40.11,8.49,6.84,3.31,7.55,25.48.47,21.47a85.35,85.35,0,0,0-38.69-9.67c-14.63,0-25.95,4.48-25.95,12C288.74,1194.84,299.83,1196.73,313.28,1198.62Z"/><path class="cls-3" d="M458.83,1259.48c-30.2,16.75-63.23,6.14-63.23-37v-38.22H381.21c-9.43,0-9.43-24.3,0-24.3H395.6l4.72-30c1.18-6.84,23.12-6.84,23.12,2.12v27.84h37c9.43,0,9.43,24.3,0,24.3h-37v39.16c0,22.17,13.21,26.42,35.39,13.68C466.61,1232.83,466.85,1254.53,458.83,1259.48Z"/><path class="cls-3" d="M598.24,1179.27c22.41,4.25,48.13,9.44,48.13,43.41,0,30.2-24.77,44.59-54,44.59-15.09,0-31.37-4-46-11.32-8.73-4-10.14-30.2-.47-25.25,17.22,8.73,33,12.74,45.3,12.74,16.74,0,27.36-7.31,27.36-20.29,0-15.56-15.8-18.87-33.5-22.41-21.94-4.71-46.94-9.91-46.94-40.81,0-30.43,24.06-44.82,52.37-44.82a98.13,98.13,0,0,1,45.06,11.32c8.25,4,9.67,29.49.47,24.77-17.93-9.2-33.74-13.44-45.77-13.44-15.33,0-24.77,7.07-24.77,20C565.45,1173.14,580.79,1176,598.24,1179.27Z"/><path class="cls-3" d="M740.73,1259.48c-30.2,16.75-63.23,6.14-63.23-37v-38.22H663.11c-9.43,0-9.43-24.3,0-24.3H677.5l4.72-30c1.18-6.84,23.12-6.84,23.12,2.12v27.84h37c9.43,0,9.43,24.3,0,24.3h-37v39.16c0,22.17,13.21,26.42,35.39,13.68C748.51,1232.83,748.75,1254.53,740.73,1259.48Z"/><path class="cls-3" d="M829.42,1182.11c-13.68.7-24.77,4.24-35.62,15.8v62.28c0,9.44-27.84,9.44-27.84,0v-98.14c0-9,22.42-8.72,24.07-2.12l3.53,14.39c9-11.09,22.65-18.16,41.05-18.63C843.34,1155.45,837.68,1181.87,829.42,1182.11Z"/><path class="cls-3" d="M847.12,1211.12c0-35.62,20.52-56.62,55.67-56.62s55.67,21,55.67,56.62c0,35.39-20.52,56.15-55.67,56.15S847.12,1246.51,847.12,1211.12Zm83.74,0c0-23.12-10.38-35.86-28.07-35.86s-28.07,12.74-28.07,35.86c0,22.65,10.38,35.39,28.07,35.39S930.86,1233.77,930.86,1211.12Z"/><path class="cls-3" d="M1075,1264.67c-24.06,8.26-34.44-7.07-44.35-22.88-4-5.9-7.79-11.8-12-16.75-4.25,3.3-8.26,6.37-12.74,9.67v25.48c0,9.44-27.6,9.44-27.6,0V1120.3c0-11.09,27.6-22.88,27.6-11.8v97.67c17.46-13.92,28.54-24.77,44.35-44.12,7.31-9.2,38-9,30.9,0a378.17,378.17,0,0,1-44.58,47.89c3.54,4,6.6,9.2,9.67,14.39,6.84,11.09,13.92,21.71,28.07,16.75C1083.73,1237.54,1084.91,1261.13,1075,1264.67Z"/><path class="cls-3" d="M1139.16,1222a140.54,140.54,0,0,1-19.82-1.41c.48,16.75,15.81,24.77,32.32,24.77,9.91,0,20.29-3.07,32.32-8.49,8.73-3.78,8.73,15.57,2.12,19.81a68,68,0,0,1-36.56,10.38c-29,0-58-16.75-58-56.85,0-33.73,18.63-55.44,54.49-55.44,34.44,0,51.66,17,51.66,48.13C1197.66,1214,1168.88,1222,1139.16,1222Zm-1.65-20.28c19.58,0,34.91-3.07,34.91-6.61,0-11.56-8.73-19.34-25.24-19.34-15.1,0-27.13,6.84-27.36,25A153.05,153.05,0,0,0,1137.51,1201.69Z"/><path class="cls-4" d="M40.08,1346.53c12.49,2.37,26.82,5.26,26.82,24.2,0,16.82-13.81,24.84-30.11,24.84a58.49,58.49,0,0,1-25.64-6.31c-4.86-2.23-5.65-16.83-.26-14.07,9.6,4.87,18.41,7.1,25.24,7.1,9.34,0,15.25-4.07,15.25-11.3,0-8.68-8.81-10.52-18.66-12.49-12.23-2.63-26.17-5.53-26.17-22.75,0-17,13.41-25,29.19-25a54.64,54.64,0,0,1,25.11,6.31c4.6,2.24,5.39,16.43.26,13.81-10-5.13-18.8-7.5-25.5-7.5-8.55,0-13.81,3.95-13.81,11.18C21.8,1343.11,30.35,1344.69,40.08,1346.53Z"/><path class="cls-4" d="M107.39,1332.73c8.41,0,14.85,2.76,18.8,5.91,3.55,3,3.41,15.91-1.19,12.76a28.75,28.75,0,0,0-15.64-5.13c-10,0-18.8,4.07-18.8,18s8.81,17.75,18.8,17.75a28.69,28.69,0,0,0,15.64-5c4.74-3,4.74,9.73,1.19,12.63a31,31,0,0,1-18.8,5.91c-19.07,0-32.22-10.12-32.22-31.29C75.17,1342.72,88.32,1332.73,107.39,1332.73Z"/><path class="cls-4" d="M206.9,1393.86a29.19,29.19,0,0,1-10.12,2.24c-6.84,0-12.23-4.34-12.23-17.09v-18.67c0-9.73-4.2-13.94-12.09-13.94-5.13,0-10.92,2.37-16.44,8.81v36.42c0,5.26-15.51,5.26-15.51,0v-78.1c0-6.18,15.51-12.62,15.51-6.44v34.71a31.66,31.66,0,0,1,22.75-8.94c13.15,0,21.3,8.28,21.3,22.09v21.82c0,3.68,1.05,5.52,3.68,5.52a7.58,7.58,0,0,0,3.15-.65C212.3,1379,212.56,1391.5,206.9,1393.86Z"/><path class="cls-4" d="M217.28,1364.28c0-19.85,11.44-31.55,31-31.55s31,11.7,31,31.55-11.44,31.29-31,31.29S217.28,1384,217.28,1364.28Zm46.68,0c0-12.88-5.79-20-15.65-20s-15.64,7.1-15.64,20c0,12.62,5.78,19.72,15.64,19.72S264,1376.9,264,1364.28Z"/><path class="cls-4" d="M288.27,1364.28c0-19.85,11.44-31.55,31-31.55s31,11.7,31,31.55-11.44,31.29-31,31.29S288.27,1384,288.27,1364.28Zm46.68,0c0-12.88-5.79-20-15.65-20s-15.64,7.1-15.64,20c0,12.62,5.78,19.72,15.64,19.72S335,1376.9,335,1364.28Z"/><path class="cls-4" d="M389.77,1393.08a37,37,0,0,1-12,2.49c-8.15,0-14.59-4.6-14.59-17.88v-63.24c0-6.31,15.38-12.88,15.38-6.57V1374c0,5.65,1.45,8.15,5,8.15a22.68,22.68,0,0,0,6.18-1.31C395.29,1378.74,395.42,1390.58,389.77,1393.08Z"/><path class="cls-4" d="M433.54,1364.28c0-19.85,11.44-31.55,31-31.55s31,11.7,31,31.55-11.44,31.29-31,31.29S433.54,1384,433.54,1364.28Zm46.67,0c0-12.88-5.78-20-15.64-20s-15.65,7.1-15.65,20c0,12.62,5.79,19.72,15.65,19.72S480.21,1376.9,480.21,1364.28Z"/><path class="cls-4" d="M550.94,1322.73c-5.39-3.15-9.86-4.6-13.28-4.6-5.52,0-8.41,4.21-8.41,12.49v5.13h16.43c6.18,0-.52,13.54-6.7,13.54h-9.73v42.34c0,5.26-15.52,5.26-15.52,0v-42.34h-8c-5.26,0-5.26-13.54,0-13.54h8v-5.52c0-17,9.73-24.85,21.7-24.85a30,30,0,0,1,15.51,4.6C555.54,1312.61,555.28,1325.23,550.94,1322.73Z"/><path class="cls-4" d="M624.42,1346.53c12.49,2.37,26.83,5.26,26.83,24.2,0,16.82-13.81,24.84-30.11,24.84a58.45,58.45,0,0,1-25.64-6.31c-4.86-2.23-5.65-16.83-.26-14.07,9.59,4.87,18.4,7.1,25.24,7.1,9.34,0,15.25-4.07,15.25-11.3,0-8.68-8.81-10.52-18.67-12.49-12.23-2.63-26.16-5.53-26.16-22.75,0-17,13.41-25,29.19-25a54.64,54.64,0,0,1,25.11,6.31c4.6,2.24,5.39,16.43.26,13.81-10-5.13-18.8-7.5-25.51-7.5-8.54,0-13.8,3.95-13.8,11.18C606.15,1343.11,614.7,1344.69,624.42,1346.53Z"/><path class="cls-4" d="M749.32,1336.67c-6.05,21.43-18.41,51.67-23.53,57.19-2.5,2.24-7.89,2.37-10.26,0-2.89-3.28-8.54-15.12-13.8-28.66-4.08,12.89-8.55,24.19-12.36,28.66-2.24,2.37-7.76,2.37-10,0-5.13-5.65-17.75-35.76-23.67-57.19-1.32-4.86,15.51-4.86,16.44,0a249.57,249.57,0,0,0,12.09,39.71,203.41,203.41,0,0,0,10.39-30.9l-2.63-8.81c-1.32-4.86,15.51-4.86,16.43,0a260.45,260.45,0,0,0,12.1,39.71,220,220,0,0,0,12.23-39.71C733.81,1331.81,750.64,1331.81,749.32,1336.67Z"/><path class="cls-4" d="M758.25,1313.27c0-5.53,3.55-9.34,9.07-9.34,5.26,0,8.94,3.81,8.94,9.34,0,5.91-3.68,9.6-8.94,9.6C761.8,1322.87,758.25,1319.18,758.25,1313.27Zm19.85,80.2a19.61,19.61,0,0,1-8.28,2c-5.92,0-10.39-3.81-10.39-13v-41.29c0-6.31,15.52-12.75,15.52-6.57v44c0,1.71.65,2.76,2,2.76a3.86,3.86,0,0,0,1.18-.26C783.62,1378.74,783.62,1390.71,778.1,1393.47Z"/><path class="cls-4" d="M895.38,1393.86a29.94,29.94,0,0,1-10.13,2.24c-6.83,0-12.23-4.21-12.23-17.09v-18.67c0-9.6-3.94-13.94-11.17-13.94-4.21,0-8.81,2.23-13.41,8.28v37c0,5.26-15.39,5.26-15.39,0v-31.29c0-9.6-3.68-13.94-11-13.94-4.21,0-8.94,2.37-13.67,8.55v36.68c0,5.26-15.39,5.26-15.39,0v-55.09c0-5,11.57-4.6,12.89-.92l2.1,6.31a27.47,27.47,0,0,1,20.51-9.07c8.55,0,14.73,3.94,17.88,10.78a27.51,27.51,0,0,1,22-10.78c12.49,0,20.12,8.28,20.12,22.09v21.69c0,3.81,1.31,5.65,3.94,5.65a7.11,7.11,0,0,0,3-.65C900.63,1379,900.9,1391.5,895.38,1393.86Z"/><path class="cls-4" d="M1009.09,1393.86A29.94,29.94,0,0,1,999,1396.1c-6.84,0-12.23-4.21-12.23-17.09v-18.67c0-9.6-3.94-13.94-11.17-13.94-4.21,0-8.82,2.23-13.42,8.28v37c0,5.26-15.38,5.26-15.38,0v-31.29c0-9.6-3.68-13.94-11-13.94-4.21,0-8.94,2.37-13.68,8.55v36.68c0,5.26-15.38,5.26-15.38,0v-55.09c0-5,11.57-4.6,12.89-.92l2.1,6.31a27.44,27.44,0,0,1,20.51-9.07c8.54,0,14.72,3.94,17.88,10.78a27.48,27.48,0,0,1,22-10.78c12.49,0,20.11,8.28,20.11,22.09v21.69c0,3.81,1.32,5.65,4,5.65a7,7,0,0,0,3-.65C1014.35,1379,1014.61,1391.5,1009.09,1393.86Z"/><path class="cls-4" d="M1021.17,1313.27c0-5.53,3.55-9.34,9.07-9.34,5.26,0,8.94,3.81,8.94,9.34,0,5.91-3.68,9.6-8.94,9.6C1024.72,1322.87,1021.17,1319.18,1021.17,1313.27Zm19.85,80.2a19.61,19.61,0,0,1-8.28,2c-5.92,0-10.38-3.81-10.38-13v-41.29c0-6.31,15.51-12.75,15.51-6.57v44c0,1.71.66,2.76,2,2.76a3.79,3.79,0,0,0,1.18-.26C1046.55,1378.74,1046.55,1390.71,1041,1393.47Z"/><path class="cls-4" d="M1122.4,1393.86a29.92,29.92,0,0,1-10.25,2.24c-6.84,0-12.1-4.34-12.1-17.09v-18.67c0-9.73-4.34-13.94-12.22-13.94-5.26,0-10.92,2.5-16.57,8.94v36.29c0,5.26-15.38,5.26-15.38,0v-55c0-5,11.57-4.6,12.88-1.05l2.11,6.71a32.74,32.74,0,0,1,23.4-9.47c13.15,0,21.17,8.28,21.17,22.09v21.69c0,3.81,1.31,5.65,3.94,5.65a7,7,0,0,0,3-.65C1127.67,1379,1127.93,1391.5,1122.4,1393.86Z"/><path class="cls-4" d="M1198.52,1341a16.55,16.55,0,0,0-7.75,2,17.73,17.73,0,0,1,2.89,10.26c0,12.75-10.39,20.24-28.66,20.24a49.24,49.24,0,0,1-9.08-.78c-2.36,1-3.94,2.49-3.94,4.73,0,4.08,4.73,4.86,10.91,5,13.41.52,32.48,1.18,32.48,17,0,13.54-10,22.61-28.8,22.61-21.16,0-30.11-8.94-30.11-20a15,15,0,0,1,5-11.57,9.79,9.79,0,0,1-5-8.94c0-6,3.55-10.13,9-12.36a17.64,17.64,0,0,1-9.08-15.91c0-12.89,10.65-20.51,28.67-20.51,7.75,0,14.19,1.44,18.93,3.94,3.68-5.13,9.07-9.2,17-9.33C1205.62,1327.21,1203.26,1341,1198.52,1341Zm-20.25,12.23c0-6-4.86-9.34-13.27-9.34s-13.15,3.29-13.15,9.34c0,5.78,4.86,9.07,13.15,9.07S1178.27,1359,1178.27,1353.24ZM1152,1401c0,6,5.65,9.87,14.59,9.87,8.16,0,13.41-3.82,13.41-9.73,0-6.84-8.8-6.84-18.27-7.1-2.24-.14-5.39-.27-6.44-.27C1153.16,1395.18,1152,1397.55,1152,1401Z"/><line class="cls-5" x1="2.61" y1="1292.15" x2="1199.75" y2="1292.15"/></g></g></svg>