<svg xmlns="http://www.w3.org/2000/svg" viewBox="0 0 1208.77 1083.55"><defs><style>.cls-1{fill:#d00662;}.cls-1,.cls-2{fill-rule:evenodd;}.cls-2{fill:#005eb6;}</style></defs><title>nav-logo</title><g id="Layer_2" data-name="Layer 2"><g id="Part_Logo_Image" data-name="Part Logo Image"><path class="cls-1" d="M677.21,733.06c-32.88-.9-67.91-10.95-103-21.59-34.27-10.39-68.69-20.62-103.62-28.35-16.66-3.68-34.69-2.39-52-1.48-14.84.78-23.78-5.73-29.87-18a199.09,199.09,0,0,1-21.29-83.46c-.7-24.25-2.22-49.15,2.29-72.68,5.59-29.15,16.43-57.37,26.08-85.63,14-41.11,30.6-81.41,43.13-123,11-36.46,16.37-74.6,27-111.2,17.18-59.12,41-115.52,78.93-164.88a164.61,164.61,0,0,1,14-15.28c8.22-8.26,17.36-9.84,27.81-4.49A402.65,402.65,0,0,1,705.4,95.44c34.33,38.72,69.06,77.22,105.74,113.67,21.61,21.47,46.54,39.92,71.48,57.62,24.67,17.52,52.32,15.37,79.14,4.19,7.37-3.06,13.41-2.46,19.77.54,20.61,9.73,37.84,23.94,52.56,41.16,6.1,7.12,5.91,15.8,1,23.05-18.86,27.67-40.57,53.43-74.37,61.76a139,139,0,0,1-56.51,1.66C833,386.13,770.59,351.71,710,314c-17.34-10.78-33.66-23.22-50.83-34.31-8.78-5.67-18.48-9.93-27.62-15.07-7.52-4.23-11.15-.91-12.69,6.25-4.22,19.61-8.24,39.27-12.37,58.9-5.7,27-10.54,54.24-17.41,80.93-6.58,25.56.66,44.18,19.76,62.33,43.24,41.09,84.74,84,126.67,126.51,19.9,20.16,39.21,40.92,58.71,61.48a100.68,100.68,0,0,1,9.57,11.3c4.25,6,3.65,11.86-2.48,16.43C765.67,715.34,727,733.62,677.21,733.06Z"/><path class="cls-1" d="M50.23,737.43c-20.32-16.79-33.5-36.68-39.88-59.72C-4,626-5,574,17.25,523.88c17.38-39.19,46.82-67.78,85.7-85.27,22.28-10,44.61-4.31,65.13,8,24.27,14.54,24.5,15.77,8.6,38.54-8.27,11.85-17.41,23.06-19.25,38.38-1.7,14,1.94,22.9,14.22,29.58,9.34,5.08,17.71,3.87,26.89-7.22,9.59-11.57,17.28-24.72,25.73-37.23,2.15-3.18,4-6.56,7.3-12,14.71,16.89,29.06,31.84,41.64,48.16,21.71,28.19,36.14,60.42,48.42,93.62,3.65,9.87,7.24,19.77,11,29.62,5.1,13.48,2.74,23.29-9.82,29.13Q256.55,728,189.66,757.29c-26.12,11.42-53.69,11.79-81.4,6.88a94.09,94.09,0,0,1-16-4.73c-17.29-6.43-21-15.82-13.8-33.27,9.14-22.33,24.31-39.7,43.19-54.29,16.49-12.75,32.71-25.82,39.66-46.76,4.37-13.2,5.29-26.55,1.29-39.86-4.9-16.29-20.19-20.11-31.9-7.57A152.46,152.46,0,0,0,93.46,646.5C85.46,679.46,67.84,707.39,50.23,737.43Z"/><path class="cls-2" d="M38.7,1083.55c14.3-206.31,196-364.88,399.93-355.92,103.61,4.55,199.18,34.84,293.14,76.85,75.4,33.73,152.28,67.61,232,87.48,112.83,28.15,177.5-14,216.7-124,4.57-12.82,8.55-25.85,13.48-40.85,49.41,124.82-29.41,261.52-163.18,287.23-109.39,21-211.66-6.91-312.48-45.58C646.45,941.23,575.69,909.6,502,888.54c-169.86-48.49-308.92,5.23-419.66,139.37C68.56,1044.56,55.63,1061.89,38.7,1083.55Z"/></g></g></svg>