<svg xmlns="http://www.w3.org/2000/svg" viewBox="0 0 1290.6 79.16"><defs><style>.cls-1{fill:#fff;}</style></defs><title>slogan</title><g id="Layer_2" data-name="Layer 2"><g id="Layer_1-2" data-name="Layer 1"><path class="cls-1" d="M35.15,61.1H2C.53,61.1,0,59.15,0,57.29V10.18C0,6,10.27,1.59,10.27,5.76V52.07H35.15C38.61,52.07,38.61,61.1,35.15,61.1Z"/><path class="cls-1" d="M60.56,44.72a51.83,51.83,0,0,1-7.44-.54c.18,6.29,5.94,9.3,12.14,9.3,3.71,0,7.61-1.15,12.13-3.19,3.27-1.41,3.27,5.85.79,7.44a25.48,25.48,0,0,1-13.72,3.9c-10.89,0-21.78-6.29-21.78-21.34,0-12.66,7-20.81,20.45-20.81,12.93,0,19.39,6.38,19.39,18.06C82.52,41.71,71.72,44.72,60.56,44.72Zm-.62-7.62c7.35,0,13.11-1.15,13.11-2.48,0-4.34-3.28-7.26-9.48-7.26-5.66,0-10.18,2.57-10.27,9.39A58.93,58.93,0,0,0,59.94,37.1Z"/><path class="cls-1" d="M118,58.79C106.69,65.08,94.3,61.1,94.3,44.89V30.55H88.9c-3.55,0-3.55-9.12,0-9.12h5.4l1.77-11.25c.44-2.57,8.68-2.57,8.68.8V21.43h13.9c3.54,0,3.54,9.12,0,9.12h-13.9v14.7c0,8.32,5,9.91,13.28,5.13C121,48.79,121,56.94,118,58.79Z"/><path class="cls-1" d="M148.13,40.64c0-13.37,7.7-21.25,20.9-21.25s20.89,7.88,20.89,21.25S182.22,61.72,169,61.72,148.13,53.92,148.13,40.64Zm31.43,0c0-8.67-3.89-13.46-10.53-13.46S158.49,32,158.49,40.64c0,8.5,3.9,13.28,10.54,13.28S179.56,49.14,179.56,40.64Z"/><path class="cls-1" d="M241.37,60.12a20.19,20.19,0,0,1-6.91,1.51c-3.54,0-6.46-1.77-7.61-6.55a21.83,21.83,0,0,1-15.94,6.55c-8.86,0-14.26-5.58-14.26-14.79V25c0-4.16,10.27-8.59,10.27-4.43V43.21c0,6.46,2.92,9.39,8.24,9.39,3.54,0,7.35-1.69,11.15-6.11V22.05c0-3.54,10.36-3.54,10.36,0V48.52c0,2.57.89,3.81,2.66,3.81a5.06,5.06,0,0,0,2-.53C244.91,50.12,245.09,58.44,241.37,60.12Z"/><path class="cls-1" d="M272.8,29.75c-5.14.27-9.3,1.6-13.37,5.93V59.06c0,3.54-10.45,3.54-10.45,0V22.23c0-3.37,8.41-3.28,9-.8l1.33,5.4c3.36-4.16,8.5-6.82,15.41-7C278,19.75,275.9,29.66,272.8,29.75Z"/><path class="cls-1" d="M333.89,12.66c-3.63-2.12-6.64-3.1-8.94-3.1-3.72,0-5.67,2.84-5.67,8.42v3.45h11.07c4.16,0-.36,9.12-4.52,9.12h-6.55V59.06c0,3.54-10.45,3.54-10.45,0V30.55h-5.4c-3.54,0-3.54-9.12,0-9.12h5.4V17.71C308.83,6.29,315.38,1,323.44,1a20.28,20.28,0,0,1,10.45,3.1C337,5.84,336.81,14.34,333.89,12.66Z"/><path class="cls-1" d="M378.43,60a18.42,18.42,0,0,1-6.64,1.51,7.16,7.16,0,0,1-7.18-5c-2.92,2.66-7.7,5.14-14.52,5.14-8.85,0-14.61-5-14.61-12.93s6.11-13,15.59-13c5.66,0,9.74.89,12.48,2.31v-.45c0-7.35-3.1-9.83-10.53-9.83a28,28,0,0,0-14,3.63c-3,1.86-3.63-4.78-.7-7.08,3.72-3.1,8.94-4.87,17.88-4.87,10.81,0,17.71,4.25,17.71,16.82V47.2c0,3.63.89,4.95,2.57,4.95a5.27,5.27,0,0,0,1.95-.35C382.24,50.38,382.24,58.44,378.43,60ZM363.55,49V45.42c-1.59-1.15-5-2-10.09-2-5.49,0-7.53,2.48-7.53,5.13s1.86,5,7,5A13.61,13.61,0,0,0,363.55,49Z"/><path class="cls-1" d="M456.43,60.57a20.33,20.33,0,0,1-6.81,1.5c-4.61,0-8.24-2.83-8.24-11.51V38c0-6.47-2.65-9.39-7.53-9.39-2.83,0-5.93,1.51-9,5.58V59.06c0,3.54-10.36,3.54-10.36,0V38c0-6.47-2.48-9.39-7.44-9.39-2.83,0-6,1.59-9.2,5.76v24.7c0,3.54-10.36,3.54-10.36,0V22c0-3.37,7.79-3.1,8.67-.62l1.42,4.25a18.51,18.51,0,0,1,13.81-6.11c5.76,0,9.92,2.66,12.05,7.26a18.5,18.5,0,0,1,14.78-7.26c8.42,0,13.55,5.58,13.55,14.88V49c0,2.56.89,3.8,2.66,3.8a4.58,4.58,0,0,0,2-.44C460,50.56,460.15,59,456.43,60.57Z"/><path class="cls-1" d="M464.58,6.29C464.58,2.57,467,0,470.69,0c3.54,0,6,2.57,6,6.29,0,4-2.48,6.46-6,6.46C467,12.75,464.58,10.27,464.58,6.29ZM478,60.3a13.12,13.12,0,0,1-5.58,1.33c-4,0-7-2.57-7-8.77V25.06c0-4.25,10.45-8.59,10.45-4.43V50.29c0,1.16.44,1.86,1.33,1.86A2.61,2.61,0,0,0,478,52C481.67,50.38,481.67,58.44,478,60.3Z"/><path class="cls-1" d="M507.87,60a24.61,24.61,0,0,1-8.06,1.69c-5.49,0-9.82-3.1-9.82-12V7.08c0-4.25,10.36-8.67,10.36-4.42V47.2c0,3.8,1,5.49,3.36,5.49a15.35,15.35,0,0,0,4.16-.89C511.59,50.38,511.68,58.35,507.87,60Z"/><path class="cls-1" d="M557.19,22.31a270.33,270.33,0,0,1-22.4,47.46c-4,6.82-8.5,9.39-13.1,9.39a15.39,15.39,0,0,1-6.91-1.77c-3.1-1.68-2.3-10.18,1.33-8.15a7.14,7.14,0,0,0,3.72,1.15c2.47,0,4.69-1.77,7.17-6.11,1-1.77,2-3.54,2.92-5.4A163.41,163.41,0,0,1,511.24,22.4c-1.42-3.89,9.65-4,11,0a118.9,118.9,0,0,0,12.57,27,260,260,0,0,0,11.51-27.1C547.54,18.51,558.52,18.59,557.19,22.31Z"/><path class="cls-1" d="M613.77,58.79C602.44,65.08,590,61.1,590,44.89V30.55h-5.4c-3.54,0-3.54-9.12,0-9.12H590l1.77-11.25c.44-2.57,8.68-2.57,8.68.8V21.43h13.9c3.54,0,3.54,9.12,0,9.12h-13.9v14.7c0,8.32,5,9.91,13.28,5.13C616.69,48.79,616.78,56.94,613.77,58.79Z"/><path class="cls-1" d="M639.18,44.72a51.73,51.73,0,0,1-7.44-.54c.18,6.29,5.94,9.3,12.13,9.3,3.72,0,7.62-1.15,12.13-3.19,3.28-1.41,3.28,5.85.8,7.44a25.51,25.51,0,0,1-13.72,3.9c-10.89,0-21.79-6.29-21.79-21.34,0-12.66,7-20.81,20.46-20.81,12.93,0,19.39,6.38,19.39,18.06C661.14,41.71,650.34,44.72,639.18,44.72Zm-.62-7.62c7.35,0,13.11-1.15,13.11-2.48,0-4.34-3.28-7.26-9.48-7.26-5.67,0-10.18,2.57-10.27,9.39A58.93,58.93,0,0,0,638.56,37.1Z"/><path class="cls-1" d="M709.66,60A18.32,18.32,0,0,1,703,61.54a7.15,7.15,0,0,1-7.17-5c-2.92,2.66-7.71,5.14-14.52,5.14-8.86,0-14.61-5-14.61-12.93s6.11-13,15.58-13c5.67,0,9.74.89,12.49,2.31v-.45c0-7.35-3.1-9.83-10.54-9.83a28,28,0,0,0-14,3.63c-3,1.86-3.63-4.78-.71-7.08,3.72-3.1,8.94-4.87,17.89-4.87,10.8,0,17.71,4.25,17.71,16.82V47.2c0,3.63.88,4.95,2.56,4.95a5.27,5.27,0,0,0,1.95-.35C713.47,50.38,713.47,58.44,709.66,60ZM694.79,49V45.42c-1.6-1.15-5-2-10.1-2-5.49,0-7.53,2.48-7.53,5.13s1.86,5,7,5A13.66,13.66,0,0,0,694.79,49Z"/><path class="cls-1" d="M738.26,19.39a20.23,20.23,0,0,1,12.66,4c2.39,2,2.3,10.71-.8,8.59a19.28,19.28,0,0,0-10.53-3.46c-6.73,0-12.66,2.75-12.66,12.13s5.93,12,12.66,12a19.32,19.32,0,0,0,10.53-3.37c3.19-2,3.19,6.55.8,8.5a20.8,20.8,0,0,1-12.66,4c-12.84,0-21.69-6.82-21.69-21.08C716.57,26.12,725.42,19.39,738.26,19.39Z"/><path class="cls-1" d="M805.28,60.57a19.87,19.87,0,0,1-6.81,1.5c-4.61,0-8.24-2.92-8.24-11.51V38c0-6.56-2.83-9.39-8.14-9.39-3.46,0-7.35,1.59-11.07,5.93V59.06c0,3.54-10.45,3.54-10.45,0V6.46C760.57,2.3,771-2,771,2.12V25.5a21.32,21.32,0,0,1,15.32-6c8.85,0,14.34,5.58,14.34,14.88V49.05c0,2.48.71,3.72,2.48,3.72a4.94,4.94,0,0,0,2.12-.44C808.92,50.56,809.09,59,805.28,60.57Z"/><path class="cls-1" d="M878.77,22.31a269.62,269.62,0,0,1-22.4,47.46c-4,6.82-8.5,9.39-13.1,9.39a15.39,15.39,0,0,1-6.91-1.77c-3.1-1.68-2.3-10.18,1.33-8.15a7.2,7.2,0,0,0,3.72,1.15c2.48,0,4.69-1.77,7.17-6.11,1-1.77,1.95-3.54,2.92-5.4A163.83,163.83,0,0,1,832.82,22.4c-1.42-3.89,9.65-4,11,0a119.76,119.76,0,0,0,12.57,27,257.83,257.83,0,0,0,11.51-27.1C869.12,18.51,880.1,18.59,878.77,22.31Z"/><path class="cls-1" d="M881.43,40.64c0-13.37,7.7-21.25,20.89-21.25s20.9,7.88,20.9,21.25-7.7,21.08-20.9,21.08S881.43,53.92,881.43,40.64Zm31.43,0c0-8.67-3.89-13.46-10.54-13.46S891.79,32,891.79,40.64c0,8.5,3.89,13.28,10.53,13.28S912.86,49.14,912.86,40.64Z"/><path class="cls-1" d="M974.67,60.12a20.24,20.24,0,0,1-6.91,1.51c-3.54,0-6.47-1.77-7.62-6.55a21.79,21.79,0,0,1-15.93,6.55c-8.86,0-14.26-5.58-14.26-14.79V25c0-4.16,10.27-8.59,10.27-4.43V43.21c0,6.46,2.92,9.39,8.24,9.39,3.54,0,7.35-1.69,11.15-6.11V22.05c0-3.54,10.36-3.54,10.36,0V48.52c0,2.57.89,3.81,2.66,3.81a5.06,5.06,0,0,0,2-.53C978.21,50.12,978.38,58.44,974.67,60.12Z"/><path class="cls-1" d="M1006.1,29.75c-5.14.27-9.3,1.6-13.37,5.93V59.06c0,3.54-10.45,3.54-10.45,0V22.23c0-3.37,8.41-3.28,9-.8l1.33,5.4c3.36-4.16,8.5-6.82,15.4-7C1011.32,19.75,1009.19,29.66,1006.1,29.75Z"/><path class="cls-1" d="M1067.19,12.66c-3.63-2.12-6.64-3.1-8.94-3.1-3.72,0-5.67,2.84-5.67,8.42v3.45h11.07c4.16,0-.36,9.12-4.52,9.12h-6.55V59.06c0,3.54-10.45,3.54-10.45,0V30.55h-5.4c-3.54,0-3.54-9.12,0-9.12h5.4V17.71c0-11.42,6.55-16.74,14.61-16.74a20.28,20.28,0,0,1,10.45,3.1C1070.29,5.84,1070.11,14.34,1067.19,12.66Z"/><path class="cls-1" d="M1111.73,60a18.42,18.42,0,0,1-6.65,1.51,7.16,7.16,0,0,1-7.17-5c-2.92,2.66-7.7,5.14-14.52,5.14-8.85,0-14.61-5-14.61-12.93s6.11-13,15.58-13c5.67,0,9.74.89,12.49,2.31v-.45c0-7.35-3.1-9.83-10.54-9.83a28,28,0,0,0-14,3.63c-3,1.86-3.63-4.78-.71-7.08,3.72-3.1,9-4.87,17.89-4.87,10.8,0,17.71,4.25,17.71,16.82V47.2c0,3.63.89,4.95,2.57,4.95a5.27,5.27,0,0,0,2-.35C1115.53,50.38,1115.53,58.44,1111.73,60ZM1096.85,49V45.42c-1.59-1.15-5-2-10.09-2-5.49,0-7.53,2.48-7.53,5.13s1.86,5,7,5A13.64,13.64,0,0,0,1096.85,49Z"/><path class="cls-1" d="M1189.73,60.57a20.33,20.33,0,0,1-6.82,1.5c-4.6,0-8.23-2.83-8.23-11.51V38c0-6.47-2.66-9.39-7.53-9.39-2.83,0-5.93,1.51-9,5.58V59.06c0,3.54-10.36,3.54-10.36,0V38c0-6.47-2.48-9.39-7.44-9.39-2.83,0-6,1.59-9.21,5.76v24.7c0,3.54-10.36,3.54-10.36,0V22c0-3.37,7.8-3.1,8.68-.62l1.42,4.25a18.51,18.51,0,0,1,13.81-6.11c5.76,0,9.92,2.66,12,7.26a18.52,18.52,0,0,1,14.79-7.26c8.41,0,13.55,5.58,13.55,14.88V49c0,2.56.88,3.8,2.66,3.8a4.58,4.58,0,0,0,2-.44C1193.27,50.56,1193.45,59,1189.73,60.57Z"/><path class="cls-1" d="M1197.87,6.29c0-3.72,2.39-6.29,6.11-6.29,3.54,0,6,2.57,6,6.29,0,4-2.48,6.46-6,6.46C1200.26,12.75,1197.87,10.27,1197.87,6.29Zm13.37,54a13.08,13.08,0,0,1-5.57,1.33c-4,0-7-2.57-7-8.77V25.06c0-4.25,10.45-8.59,10.45-4.43V50.29c0,1.16.44,1.86,1.33,1.86a2.49,2.49,0,0,0,.79-.17C1215,50.38,1215,58.44,1211.24,60.3Z"/><path class="cls-1" d="M1241.17,60a24.61,24.61,0,0,1-8.06,1.69c-5.49,0-9.83-3.1-9.83-12V7.08c0-4.25,10.37-8.67,10.37-4.42V47.2c0,3.8,1,5.49,3.36,5.49a15.35,15.35,0,0,0,4.16-.89C1244.89,50.38,1245,58.35,1241.17,60Z"/><path class="cls-1" d="M1290.49,22.31a270.33,270.33,0,0,1-22.4,47.46c-4,6.82-8.5,9.39-13.11,9.39a15.38,15.38,0,0,1-6.9-1.77c-3.1-1.68-2.31-10.18,1.32-8.15a7.2,7.2,0,0,0,3.72,1.15c2.48,0,4.7-1.77,7.18-6.11,1-1.77,1.94-3.54,2.92-5.4a163.47,163.47,0,0,1-18.69-36.48c-1.41-3.89,9.66-4,11,0a118.9,118.9,0,0,0,12.57,27,260,260,0,0,0,11.51-27.1C1280.84,18.51,1291.82,18.59,1290.49,22.31Z"/></g></g></svg>